<?xml version="1.0" encoding="utf-8" standalone="no"?>
<!DOCTYPE svg PUBLIC "-//W3C//DTD SVG 1.1//EN"
  "http://www.w3.org/Graphics/SVG/1.1/DTD/svg11.dtd">
<svg xmlns:xlink="http://www.w3.org/1999/xlink" width="576pt" height="288pt" viewBox="0 0 576 288" xmlns="http://www.w3.org/2000/svg" version="1.1">
 <metadata>
  <rdf:RDF xmlns:dc="http://purl.org/dc/elements/1.1/" xmlns:cc="http://creativecommons.org/ns#" xmlns:rdf="http://www.w3.org/1999/02/22-rdf-syntax-ns#">
   <cc:Work>
    <dc:type rdf:resource="http://purl.org/dc/dcmitype/StillImage"/>
    <dc:date>2025-07-11T20:52:47.764454</dc:date>
    <dc:format>image/svg+xml</dc:format>
    <dc:creator>
     <cc:Agent>
      <dc:title>Matplotlib v3.10.0, https://matplotlib.org/</dc:title>
     </cc:Agent>
    </dc:creator>
   </cc:Work>
  </rdf:RDF>
 </metadata>
 <defs>
  <style type="text/css">*{stroke-linejoin: round; stroke-linecap: butt}</style>
 </defs>
 <g id="figure_1">
  <g id="patch_1">
   <path d="M 0 288 
L 576 288 
L 576 0 
L 0 0 
z
" style="fill: #ffffff"/>
  </g>
  <g id="axes_1">
   <g id="patch_2">
    <path d="M 47.81 246.04 
L 565.2 246.04 
L 565.2 25.44 
L 47.81 25.44 
z
" style="fill: #ffffff"/>
   </g>
   <g id="matplotlib.axis_1">
    <g id="xtick_1">
     <g id="line2d_1">
      <path d="M 71.327727 246.04 
L 71.327727 25.44 
" clip-path="url(#p786163866f)" style="fill: none; stroke: #b0b0b0; stroke-width: 0.8; stroke-linecap: square"/>
     </g>
     <g id="line2d_2">
      <defs>
       <path id="m48564ed349" d="M 0 0 
L 0 3.5 
" style="stroke: #000000; stroke-width: 0.8"/>
      </defs>
      <g>
       <use xlink:href="#m48564ed349" x="71.327727" y="246.04" style="stroke: #000000; stroke-width: 0.8"/>
      </g>
     </g>
     <g id="text_1">
      <!-- 0 -->
      <g transform="translate(68.146477 260.638438) scale(0.1 -0.1)">
       <defs>
        <path id="DejaVuSans-30" d="M 2034 4250 
Q 1547 4250 1301 3770 
Q 1056 3291 1056 2328 
Q 1056 1369 1301 889 
Q 1547 409 2034 409 
Q 2525 409 2770 889 
Q 3016 1369 3016 2328 
Q 3016 3291 2770 3770 
Q 2525 4250 2034 4250 
z
M 2034 4750 
Q 2819 4750 3233 4129 
Q 3647 3509 3647 2328 
Q 3647 1150 3233 529 
Q 2819 -91 2034 -91 
Q 1250 -91 836 529 
Q 422 1150 422 2328 
Q 422 3509 836 4129 
Q 1250 4750 2034 4750 
z
" transform="scale(0.015625)"/>
       </defs>
       <use xlink:href="#DejaVuSans-30"/>
      </g>
     </g>
    </g>
    <g id="xtick_2">
     <g id="line2d_3">
      <path d="M 166.348848 246.04 
L 166.348848 25.44 
" clip-path="url(#p786163866f)" style="fill: none; stroke: #b0b0b0; stroke-width: 0.8; stroke-linecap: square"/>
     </g>
     <g id="line2d_4">
      <g>
       <use xlink:href="#m48564ed349" x="166.348848" y="246.04" style="stroke: #000000; stroke-width: 0.8"/>
      </g>
     </g>
     <g id="text_2">
      <!-- 20 -->
      <g transform="translate(159.986348 260.638438) scale(0.1 -0.1)">
       <defs>
        <path id="DejaVuSans-32" d="M 1228 531 
L 3431 531 
L 3431 0 
L 469 0 
L 469 531 
Q 828 903 1448 1529 
Q 2069 2156 2228 2338 
Q 2531 2678 2651 2914 
Q 2772 3150 2772 3378 
Q 2772 3750 2511 3984 
Q 2250 4219 1831 4219 
Q 1534 4219 1204 4116 
Q 875 4013 500 3803 
L 500 4441 
Q 881 4594 1212 4672 
Q 1544 4750 1819 4750 
Q 2544 4750 2975 4387 
Q 3406 4025 3406 3419 
Q 3406 3131 3298 2873 
Q 3191 2616 2906 2266 
Q 2828 2175 2409 1742 
Q 1991 1309 1228 531 
z
" transform="scale(0.015625)"/>
       </defs>
       <use xlink:href="#DejaVuSans-32"/>
       <use xlink:href="#DejaVuSans-30" transform="translate(63.623047 0)"/>
      </g>
     </g>
    </g>
    <g id="xtick_3">
     <g id="line2d_5">
      <path d="M 261.369968 246.04 
L 261.369968 25.44 
" clip-path="url(#p786163866f)" style="fill: none; stroke: #b0b0b0; stroke-width: 0.8; stroke-linecap: square"/>
     </g>
     <g id="line2d_6">
      <g>
       <use xlink:href="#m48564ed349" x="261.369968" y="246.04" style="stroke: #000000; stroke-width: 0.8"/>
      </g>
     </g>
     <g id="text_3">
      <!-- 40 -->
      <g transform="translate(255.007468 260.638438) scale(0.1 -0.1)">
       <defs>
        <path id="DejaVuSans-34" d="M 2419 4116 
L 825 1625 
L 2419 1625 
L 2419 4116 
z
M 2253 4666 
L 3047 4666 
L 3047 1625 
L 3713 1625 
L 3713 1100 
L 3047 1100 
L 3047 0 
L 2419 0 
L 2419 1100 
L 313 1100 
L 313 1709 
L 2253 4666 
z
" transform="scale(0.015625)"/>
       </defs>
       <use xlink:href="#DejaVuSans-34"/>
       <use xlink:href="#DejaVuSans-30" transform="translate(63.623047 0)"/>
      </g>
     </g>
    </g>
    <g id="xtick_4">
     <g id="line2d_7">
      <path d="M 356.391088 246.04 
L 356.391088 25.44 
" clip-path="url(#p786163866f)" style="fill: none; stroke: #b0b0b0; stroke-width: 0.8; stroke-linecap: square"/>
     </g>
     <g id="line2d_8">
      <g>
       <use xlink:href="#m48564ed349" x="356.391088" y="246.04" style="stroke: #000000; stroke-width: 0.8"/>
      </g>
     </g>
     <g id="text_4">
      <!-- 60 -->
      <g transform="translate(350.028588 260.638438) scale(0.1 -0.1)">
       <defs>
        <path id="DejaVuSans-36" d="M 2113 2584 
Q 1688 2584 1439 2293 
Q 1191 2003 1191 1497 
Q 1191 994 1439 701 
Q 1688 409 2113 409 
Q 2538 409 2786 701 
Q 3034 994 3034 1497 
Q 3034 2003 2786 2293 
Q 2538 2584 2113 2584 
z
M 3366 4563 
L 3366 3988 
Q 3128 4100 2886 4159 
Q 2644 4219 2406 4219 
Q 1781 4219 1451 3797 
Q 1122 3375 1075 2522 
Q 1259 2794 1537 2939 
Q 1816 3084 2150 3084 
Q 2853 3084 3261 2657 
Q 3669 2231 3669 1497 
Q 3669 778 3244 343 
Q 2819 -91 2113 -91 
Q 1303 -91 875 529 
Q 447 1150 447 2328 
Q 447 3434 972 4092 
Q 1497 4750 2381 4750 
Q 2619 4750 2861 4703 
Q 3103 4656 3366 4563 
z
" transform="scale(0.015625)"/>
       </defs>
       <use xlink:href="#DejaVuSans-36"/>
       <use xlink:href="#DejaVuSans-30" transform="translate(63.623047 0)"/>
      </g>
     </g>
    </g>
    <g id="xtick_5">
     <g id="line2d_9">
      <path d="M 451.412208 246.04 
L 451.412208 25.44 
" clip-path="url(#p786163866f)" style="fill: none; stroke: #b0b0b0; stroke-width: 0.8; stroke-linecap: square"/>
     </g>
     <g id="line2d_10">
      <g>
       <use xlink:href="#m48564ed349" x="451.412208" y="246.04" style="stroke: #000000; stroke-width: 0.8"/>
      </g>
     </g>
     <g id="text_5">
      <!-- 80 -->
      <g transform="translate(445.049708 260.638438) scale(0.1 -0.1)">
       <defs>
        <path id="DejaVuSans-38" d="M 2034 2216 
Q 1584 2216 1326 1975 
Q 1069 1734 1069 1313 
Q 1069 891 1326 650 
Q 1584 409 2034 409 
Q 2484 409 2743 651 
Q 3003 894 3003 1313 
Q 3003 1734 2745 1975 
Q 2488 2216 2034 2216 
z
M 1403 2484 
Q 997 2584 770 2862 
Q 544 3141 544 3541 
Q 544 4100 942 4425 
Q 1341 4750 2034 4750 
Q 2731 4750 3128 4425 
Q 3525 4100 3525 3541 
Q 3525 3141 3298 2862 
Q 3072 2584 2669 2484 
Q 3125 2378 3379 2068 
Q 3634 1759 3634 1313 
Q 3634 634 3220 271 
Q 2806 -91 2034 -91 
Q 1263 -91 848 271 
Q 434 634 434 1313 
Q 434 1759 690 2068 
Q 947 2378 1403 2484 
z
M 1172 3481 
Q 1172 3119 1398 2916 
Q 1625 2713 2034 2713 
Q 2441 2713 2670 2916 
Q 2900 3119 2900 3481 
Q 2900 3844 2670 4047 
Q 2441 4250 2034 4250 
Q 1625 4250 1398 4047 
Q 1172 3844 1172 3481 
z
" transform="scale(0.015625)"/>
       </defs>
       <use xlink:href="#DejaVuSans-38"/>
       <use xlink:href="#DejaVuSans-30" transform="translate(63.623047 0)"/>
      </g>
     </g>
    </g>
    <g id="xtick_6">
     <g id="line2d_11">
      <path d="M 546.433329 246.04 
L 546.433329 25.44 
" clip-path="url(#p786163866f)" style="fill: none; stroke: #b0b0b0; stroke-width: 0.8; stroke-linecap: square"/>
     </g>
     <g id="line2d_12">
      <g>
       <use xlink:href="#m48564ed349" x="546.433329" y="246.04" style="stroke: #000000; stroke-width: 0.8"/>
      </g>
     </g>
     <g id="text_6">
      <!-- 100 -->
      <g transform="translate(536.889579 260.638438) scale(0.1 -0.1)">
       <defs>
        <path id="DejaVuSans-31" d="M 794 531 
L 1825 531 
L 1825 4091 
L 703 3866 
L 703 4441 
L 1819 4666 
L 2450 4666 
L 2450 531 
L 3481 531 
L 3481 0 
L 794 0 
L 794 531 
z
" transform="scale(0.015625)"/>
       </defs>
       <use xlink:href="#DejaVuSans-31"/>
       <use xlink:href="#DejaVuSans-30" transform="translate(63.623047 0)"/>
       <use xlink:href="#DejaVuSans-30" transform="translate(127.246094 0)"/>
      </g>
     </g>
    </g>
    <g id="text_7">
     <!-- Epoch -->
     <g transform="translate(291.194062 274.316562) scale(0.1 -0.1)">
      <defs>
       <path id="DejaVuSans-45" d="M 628 4666 
L 3578 4666 
L 3578 4134 
L 1259 4134 
L 1259 2753 
L 3481 2753 
L 3481 2222 
L 1259 2222 
L 1259 531 
L 3634 531 
L 3634 0 
L 628 0 
L 628 4666 
z
" transform="scale(0.015625)"/>
       <path id="DejaVuSans-70" d="M 1159 525 
L 1159 -1331 
L 581 -1331 
L 581 3500 
L 1159 3500 
L 1159 2969 
Q 1341 3281 1617 3432 
Q 1894 3584 2278 3584 
Q 2916 3584 3314 3078 
Q 3713 2572 3713 1747 
Q 3713 922 3314 415 
Q 2916 -91 2278 -91 
Q 1894 -91 1617 61 
Q 1341 213 1159 525 
z
M 3116 1747 
Q 3116 2381 2855 2742 
Q 2594 3103 2138 3103 
Q 1681 3103 1420 2742 
Q 1159 2381 1159 1747 
Q 1159 1113 1420 752 
Q 1681 391 2138 391 
Q 2594 391 2855 752 
Q 3116 1113 3116 1747 
z
" transform="scale(0.015625)"/>
       <path id="DejaVuSans-6f" d="M 1959 3097 
Q 1497 3097 1228 2736 
Q 959 2375 959 1747 
Q 959 1119 1226 758 
Q 1494 397 1959 397 
Q 2419 397 2687 759 
Q 2956 1122 2956 1747 
Q 2956 2369 2687 2733 
Q 2419 3097 1959 3097 
z
M 1959 3584 
Q 2709 3584 3137 3096 
Q 3566 2609 3566 1747 
Q 3566 888 3137 398 
Q 2709 -91 1959 -91 
Q 1206 -91 779 398 
Q 353 888 353 1747 
Q 353 2609 779 3096 
Q 1206 3584 1959 3584 
z
" transform="scale(0.015625)"/>
       <path id="DejaVuSans-63" d="M 3122 3366 
L 3122 2828 
Q 2878 2963 2633 3030 
Q 2388 3097 2138 3097 
Q 1578 3097 1268 2742 
Q 959 2388 959 1747 
Q 959 1106 1268 751 
Q 1578 397 2138 397 
Q 2388 397 2633 464 
Q 2878 531 3122 666 
L 3122 134 
Q 2881 22 2623 -34 
Q 2366 -91 2075 -91 
Q 1284 -91 818 406 
Q 353 903 353 1747 
Q 353 2603 823 3093 
Q 1294 3584 2113 3584 
Q 2378 3584 2631 3529 
Q 2884 3475 3122 3366 
z
" transform="scale(0.015625)"/>
       <path id="DejaVuSans-68" d="M 3513 2113 
L 3513 0 
L 2938 0 
L 2938 2094 
Q 2938 2591 2744 2837 
Q 2550 3084 2163 3084 
Q 1697 3084 1428 2787 
Q 1159 2491 1159 1978 
L 1159 0 
L 581 0 
L 581 4863 
L 1159 4863 
L 1159 2956 
Q 1366 3272 1645 3428 
Q 1925 3584 2291 3584 
Q 2894 3584 3203 3211 
Q 3513 2838 3513 2113 
z
" transform="scale(0.015625)"/>
      </defs>
      <use xlink:href="#DejaVuSans-45"/>
      <use xlink:href="#DejaVuSans-70" transform="translate(63.183594 0)"/>
      <use xlink:href="#DejaVuSans-6f" transform="translate(126.660156 0)"/>
      <use xlink:href="#DejaVuSans-63" transform="translate(187.841797 0)"/>
      <use xlink:href="#DejaVuSans-68" transform="translate(242.822266 0)"/>
     </g>
    </g>
   </g>
   <g id="matplotlib.axis_2">
    <g id="ytick_1">
     <g id="line2d_13">
      <path d="M 47.81 236.328093 
L 565.2 236.328093 
" clip-path="url(#p786163866f)" style="fill: none; stroke: #b0b0b0; stroke-width: 0.8; stroke-linecap: square"/>
     </g>
     <g id="line2d_14">
      <defs>
       <path id="ma44e5957e7" d="M 0 0 
L -3.5 0 
" style="stroke: #000000; stroke-width: 0.8"/>
      </defs>
      <g>
       <use xlink:href="#ma44e5957e7" x="47.81" y="236.328093" style="stroke: #000000; stroke-width: 0.8"/>
      </g>
     </g>
     <g id="text_8">
      <!-- 0.0 -->
      <g transform="translate(24.906875 240.127312) scale(0.1 -0.1)">
       <defs>
        <path id="DejaVuSans-2e" d="M 684 794 
L 1344 794 
L 1344 0 
L 684 0 
L 684 794 
z
" transform="scale(0.015625)"/>
       </defs>
       <use xlink:href="#DejaVuSans-30"/>
       <use xlink:href="#DejaVuSans-2e" transform="translate(63.623047 0)"/>
       <use xlink:href="#DejaVuSans-30" transform="translate(95.410156 0)"/>
      </g>
     </g>
    </g>
    <g id="ytick_2">
     <g id="line2d_15">
      <path d="M 47.81 195.906459 
L 565.2 195.906459 
" clip-path="url(#p786163866f)" style="fill: none; stroke: #b0b0b0; stroke-width: 0.8; stroke-linecap: square"/>
     </g>
     <g id="line2d_16">
      <g>
       <use xlink:href="#ma44e5957e7" x="47.81" y="195.906459" style="stroke: #000000; stroke-width: 0.8"/>
      </g>
     </g>
     <g id="text_9">
      <!-- 0.2 -->
      <g transform="translate(24.906875 199.705677) scale(0.1 -0.1)">
       <use xlink:href="#DejaVuSans-30"/>
       <use xlink:href="#DejaVuSans-2e" transform="translate(63.623047 0)"/>
       <use xlink:href="#DejaVuSans-32" transform="translate(95.410156 0)"/>
      </g>
     </g>
    </g>
    <g id="ytick_3">
     <g id="line2d_17">
      <path d="M 47.81 155.484824 
L 565.2 155.484824 
" clip-path="url(#p786163866f)" style="fill: none; stroke: #b0b0b0; stroke-width: 0.8; stroke-linecap: square"/>
     </g>
     <g id="line2d_18">
      <g>
       <use xlink:href="#ma44e5957e7" x="47.81" y="155.484824" style="stroke: #000000; stroke-width: 0.8"/>
      </g>
     </g>
     <g id="text_10">
      <!-- 0.4 -->
      <g transform="translate(24.906875 159.284043) scale(0.1 -0.1)">
       <use xlink:href="#DejaVuSans-30"/>
       <use xlink:href="#DejaVuSans-2e" transform="translate(63.623047 0)"/>
       <use xlink:href="#DejaVuSans-34" transform="translate(95.410156 0)"/>
      </g>
     </g>
    </g>
    <g id="ytick_4">
     <g id="line2d_19">
      <path d="M 47.81 115.06319 
L 565.2 115.06319 
" clip-path="url(#p786163866f)" style="fill: none; stroke: #b0b0b0; stroke-width: 0.8; stroke-linecap: square"/>
     </g>
     <g id="line2d_20">
      <g>
       <use xlink:href="#ma44e5957e7" x="47.81" y="115.06319" style="stroke: #000000; stroke-width: 0.8"/>
      </g>
     </g>
     <g id="text_11">
      <!-- 0.6 -->
      <g transform="translate(24.906875 118.862409) scale(0.1 -0.1)">
       <use xlink:href="#DejaVuSans-30"/>
       <use xlink:href="#DejaVuSans-2e" transform="translate(63.623047 0)"/>
       <use xlink:href="#DejaVuSans-36" transform="translate(95.410156 0)"/>
      </g>
     </g>
    </g>
    <g id="ytick_5">
     <g id="line2d_21">
      <path d="M 47.81 74.641555 
L 565.2 74.641555 
" clip-path="url(#p786163866f)" style="fill: none; stroke: #b0b0b0; stroke-width: 0.8; stroke-linecap: square"/>
     </g>
     <g id="line2d_22">
      <g>
       <use xlink:href="#ma44e5957e7" x="47.81" y="74.641555" style="stroke: #000000; stroke-width: 0.8"/>
      </g>
     </g>
     <g id="text_12">
      <!-- 0.8 -->
      <g transform="translate(24.906875 78.440774) scale(0.1 -0.1)">
       <use xlink:href="#DejaVuSans-30"/>
       <use xlink:href="#DejaVuSans-2e" transform="translate(63.623047 0)"/>
       <use xlink:href="#DejaVuSans-38" transform="translate(95.410156 0)"/>
      </g>
     </g>
    </g>
    <g id="ytick_6">
     <g id="line2d_23">
      <path d="M 47.81 34.219921 
L 565.2 34.219921 
" clip-path="url(#p786163866f)" style="fill: none; stroke: #b0b0b0; stroke-width: 0.8; stroke-linecap: square"/>
     </g>
     <g id="line2d_24">
      <g>
       <use xlink:href="#ma44e5957e7" x="47.81" y="34.219921" style="stroke: #000000; stroke-width: 0.8"/>
      </g>
     </g>
     <g id="text_13">
      <!-- 1.0 -->
      <g transform="translate(24.906875 38.01914) scale(0.1 -0.1)">
       <use xlink:href="#DejaVuSans-31"/>
       <use xlink:href="#DejaVuSans-2e" transform="translate(63.623047 0)"/>
       <use xlink:href="#DejaVuSans-30" transform="translate(95.410156 0)"/>
      </g>
     </g>
    </g>
    <g id="text_14">
     <!-- Loss -->
     <g transform="translate(18.827188 146.707188) rotate(-90) scale(0.1 -0.1)">
      <defs>
       <path id="DejaVuSans-4c" d="M 628 4666 
L 1259 4666 
L 1259 531 
L 3531 531 
L 3531 0 
L 628 0 
L 628 4666 
z
" transform="scale(0.015625)"/>
       <path id="DejaVuSans-73" d="M 2834 3397 
L 2834 2853 
Q 2591 2978 2328 3040 
Q 2066 3103 1784 3103 
Q 1356 3103 1142 2972 
Q 928 2841 928 2578 
Q 928 2378 1081 2264 
Q 1234 2150 1697 2047 
L 1894 2003 
Q 2506 1872 2764 1633 
Q 3022 1394 3022 966 
Q 3022 478 2636 193 
Q 2250 -91 1575 -91 
Q 1294 -91 989 -36 
Q 684 19 347 128 
L 347 722 
Q 666 556 975 473 
Q 1284 391 1588 391 
Q 1994 391 2212 530 
Q 2431 669 2431 922 
Q 2431 1156 2273 1281 
Q 2116 1406 1581 1522 
L 1381 1569 
Q 847 1681 609 1914 
Q 372 2147 372 2553 
Q 372 3047 722 3315 
Q 1072 3584 1716 3584 
Q 2034 3584 2315 3537 
Q 2597 3491 2834 3397 
z
" transform="scale(0.015625)"/>
      </defs>
      <use xlink:href="#DejaVuSans-4c"/>
      <use xlink:href="#DejaVuSans-6f" transform="translate(53.962891 0)"/>
      <use xlink:href="#DejaVuSans-73" transform="translate(115.144531 0)"/>
      <use xlink:href="#DejaVuSans-73" transform="translate(167.244141 0)"/>
     </g>
    </g>
   </g>
   <g id="line2d_25">
    <path d="M 71.327727 35.467273 
L 76.078783 40.371076 
L 80.829839 46.596198 
L 85.580895 52.329541 
L 90.331951 57.986076 
L 95.083007 62.759801 
L 99.834063 69.062598 
L 104.585119 75.111539 
L 109.336175 82.644871 
L 114.087231 87.353002 
L 118.838287 95.807898 
L 123.589343 100.010687 
L 128.340399 111.086595 
L 133.091455 122.300473 
L 137.842511 127.146296 
L 142.593567 143.369228 
L 147.344624 144.473611 
L 152.09568 157.09721 
L 156.846736 168.101182 
L 161.597792 177.274892 
L 166.348848 181.285002 
L 171.099904 187.050248 
L 175.85096 193.804681 
L 180.602016 202.885632 
L 185.353072 202.53233 
L 190.104128 211.601977 
L 194.855184 211.921273 
L 199.60624 218.506993 
L 204.357296 220.716861 
L 209.108352 223.271827 
L 213.859408 224.43635 
L 218.610464 224.636729 
L 223.36152 227.068928 
L 228.112576 227.951311 
L 232.863632 227.661097 
L 237.614688 228.111329 
L 242.365744 230.567572 
L 247.1168 230.399061 
L 251.867856 231.076403 
L 256.618912 231.343072 
L 261.369968 231.849522 
L 266.121024 232.264524 
L 270.87208 232.587649 
L 275.623136 232.853638 
L 280.374192 233.114255 
L 285.125248 232.504856 
L 289.876304 233.640086 
L 294.62736 233.870738 
L 299.378416 234.187729 
L 304.129472 233.484965 
L 308.880528 234.296324 
L 313.631584 234.070023 
L 318.38264 234.433327 
L 323.133696 234.167556 
L 327.884752 234.059423 
L 332.635808 234.615079 
L 337.386864 234.736951 
L 342.13792 234.543245 
L 346.888976 234.486729 
L 351.640032 235.029022 
L 356.391088 235.068115 
L 361.142144 234.576369 
L 365.8932 235.227628 
L 370.644256 235.362633 
L 375.395312 235.406166 
L 380.146368 235.52272 
L 384.897424 235.528465 
L 389.64848 235.522312 
L 394.399536 235.285283 
L 399.150592 235.481102 
L 403.901648 235.306198 
L 408.652704 235.70233 
L 413.40376 235.489128 
L 418.154816 235.443452 
L 422.905872 235.618546 
L 427.656928 235.672765 
L 432.407984 235.605361 
L 437.15904 235.634449 
L 441.910096 235.808597 
L 446.661152 235.577218 
L 451.412208 235.744773 
L 456.163264 235.851117 
L 460.91432 235.746498 
L 465.665376 235.770867 
L 470.416433 235.818712 
L 475.167489 235.857097 
L 479.918545 235.947685 
L 484.669601 235.850394 
L 489.420657 235.889244 
L 494.171713 235.833933 
L 498.922769 235.959951 
L 503.673825 235.985895 
L 508.424881 235.942838 
L 513.175937 235.87033 
L 517.926993 235.99117 
L 522.678049 235.962321 
L 527.429105 235.945748 
L 532.180161 235.998941 
L 536.931217 235.959344 
L 541.682273 236.012727 
" clip-path="url(#p786163866f)" style="fill: none; stroke: #0000ff; stroke-width: 1.5; stroke-linecap: square"/>
    <defs>
     <path id="mea951f31fb" d="M 0 3 
C 0.795609 3 1.55874 2.683901 2.12132 2.12132 
C 2.683901 1.55874 3 0.795609 3 0 
C 3 -0.795609 2.683901 -1.55874 2.12132 -2.12132 
C 1.55874 -2.683901 0.795609 -3 0 -3 
C -0.795609 -3 -1.55874 -2.683901 -2.12132 -2.12132 
C -2.683901 -1.55874 -3 -0.795609 -3 0 
C -3 0.795609 -2.683901 1.55874 -2.12132 2.12132 
C -1.55874 2.683901 -0.795609 3 0 3 
z
" style="stroke: #0000ff"/>
    </defs>
    <g clip-path="url(#p786163866f)">
     <use xlink:href="#mea951f31fb" x="71.327727" y="35.467273" style="fill: #0000ff; stroke: #0000ff"/>
     <use xlink:href="#mea951f31fb" x="76.078783" y="40.371076" style="fill: #0000ff; stroke: #0000ff"/>
     <use xlink:href="#mea951f31fb" x="80.829839" y="46.596198" style="fill: #0000ff; stroke: #0000ff"/>
     <use xlink:href="#mea951f31fb" x="85.580895" y="52.329541" style="fill: #0000ff; stroke: #0000ff"/>
     <use xlink:href="#mea951f31fb" x="90.331951" y="57.986076" style="fill: #0000ff; stroke: #0000ff"/>
     <use xlink:href="#mea951f31fb" x="95.083007" y="62.759801" style="fill: #0000ff; stroke: #0000ff"/>
     <use xlink:href="#mea951f31fb" x="99.834063" y="69.062598" style="fill: #0000ff; stroke: #0000ff"/>
     <use xlink:href="#mea951f31fb" x="104.585119" y="75.111539" style="fill: #0000ff; stroke: #0000ff"/>
     <use xlink:href="#mea951f31fb" x="109.336175" y="82.644871" style="fill: #0000ff; stroke: #0000ff"/>
     <use xlink:href="#mea951f31fb" x="114.087231" y="87.353002" style="fill: #0000ff; stroke: #0000ff"/>
     <use xlink:href="#mea951f31fb" x="118.838287" y="95.807898" style="fill: #0000ff; stroke: #0000ff"/>
     <use xlink:href="#mea951f31fb" x="123.589343" y="100.010687" style="fill: #0000ff; stroke: #0000ff"/>
     <use xlink:href="#mea951f31fb" x="128.340399" y="111.086595" style="fill: #0000ff; stroke: #0000ff"/>
     <use xlink:href="#mea951f31fb" x="133.091455" y="122.300473" style="fill: #0000ff; stroke: #0000ff"/>
     <use xlink:href="#mea951f31fb" x="137.842511" y="127.146296" style="fill: #0000ff; stroke: #0000ff"/>
     <use xlink:href="#mea951f31fb" x="142.593567" y="143.369228" style="fill: #0000ff; stroke: #0000ff"/>
     <use xlink:href="#mea951f31fb" x="147.344624" y="144.473611" style="fill: #0000ff; stroke: #0000ff"/>
     <use xlink:href="#mea951f31fb" x="152.09568" y="157.09721" style="fill: #0000ff; stroke: #0000ff"/>
     <use xlink:href="#mea951f31fb" x="156.846736" y="168.101182" style="fill: #0000ff; stroke: #0000ff"/>
     <use xlink:href="#mea951f31fb" x="161.597792" y="177.274892" style="fill: #0000ff; stroke: #0000ff"/>
     <use xlink:href="#mea951f31fb" x="166.348848" y="181.285002" style="fill: #0000ff; stroke: #0000ff"/>
     <use xlink:href="#mea951f31fb" x="171.099904" y="187.050248" style="fill: #0000ff; stroke: #0000ff"/>
     <use xlink:href="#mea951f31fb" x="175.85096" y="193.804681" style="fill: #0000ff; stroke: #0000ff"/>
     <use xlink:href="#mea951f31fb" x="180.602016" y="202.885632" style="fill: #0000ff; stroke: #0000ff"/>
     <use xlink:href="#mea951f31fb" x="185.353072" y="202.53233" style="fill: #0000ff; stroke: #0000ff"/>
     <use xlink:href="#mea951f31fb" x="190.104128" y="211.601977" style="fill: #0000ff; stroke: #0000ff"/>
     <use xlink:href="#mea951f31fb" x="194.855184" y="211.921273" style="fill: #0000ff; stroke: #0000ff"/>
     <use xlink:href="#mea951f31fb" x="199.60624" y="218.506993" style="fill: #0000ff; stroke: #0000ff"/>
     <use xlink:href="#mea951f31fb" x="204.357296" y="220.716861" style="fill: #0000ff; stroke: #0000ff"/>
     <use xlink:href="#mea951f31fb" x="209.108352" y="223.271827" style="fill: #0000ff; stroke: #0000ff"/>
     <use xlink:href="#mea951f31fb" x="213.859408" y="224.43635" style="fill: #0000ff; stroke: #0000ff"/>
     <use xlink:href="#mea951f31fb" x="218.610464" y="224.636729" style="fill: #0000ff; stroke: #0000ff"/>
     <use xlink:href="#mea951f31fb" x="223.36152" y="227.068928" style="fill: #0000ff; stroke: #0000ff"/>
     <use xlink:href="#mea951f31fb" x="228.112576" y="227.951311" style="fill: #0000ff; stroke: #0000ff"/>
     <use xlink:href="#mea951f31fb" x="232.863632" y="227.661097" style="fill: #0000ff; stroke: #0000ff"/>
     <use xlink:href="#mea951f31fb" x="237.614688" y="228.111329" style="fill: #0000ff; stroke: #0000ff"/>
     <use xlink:href="#mea951f31fb" x="242.365744" y="230.567572" style="fill: #0000ff; stroke: #0000ff"/>
     <use xlink:href="#mea951f31fb" x="247.1168" y="230.399061" style="fill: #0000ff; stroke: #0000ff"/>
     <use xlink:href="#mea951f31fb" x="251.867856" y="231.076403" style="fill: #0000ff; stroke: #0000ff"/>
     <use xlink:href="#mea951f31fb" x="256.618912" y="231.343072" style="fill: #0000ff; stroke: #0000ff"/>
     <use xlink:href="#mea951f31fb" x="261.369968" y="231.849522" style="fill: #0000ff; stroke: #0000ff"/>
     <use xlink:href="#mea951f31fb" x="266.121024" y="232.264524" style="fill: #0000ff; stroke: #0000ff"/>
     <use xlink:href="#mea951f31fb" x="270.87208" y="232.587649" style="fill: #0000ff; stroke: #0000ff"/>
     <use xlink:href="#mea951f31fb" x="275.623136" y="232.853638" style="fill: #0000ff; stroke: #0000ff"/>
     <use xlink:href="#mea951f31fb" x="280.374192" y="233.114255" style="fill: #0000ff; stroke: #0000ff"/>
     <use xlink:href="#mea951f31fb" x="285.125248" y="232.504856" style="fill: #0000ff; stroke: #0000ff"/>
     <use xlink:href="#mea951f31fb" x="289.876304" y="233.640086" style="fill: #0000ff; stroke: #0000ff"/>
     <use xlink:href="#mea951f31fb" x="294.62736" y="233.870738" style="fill: #0000ff; stroke: #0000ff"/>
     <use xlink:href="#mea951f31fb" x="299.378416" y="234.187729" style="fill: #0000ff; stroke: #0000ff"/>
     <use xlink:href="#mea951f31fb" x="304.129472" y="233.484965" style="fill: #0000ff; stroke: #0000ff"/>
     <use xlink:href="#mea951f31fb" x="308.880528" y="234.296324" style="fill: #0000ff; stroke: #0000ff"/>
     <use xlink:href="#mea951f31fb" x="313.631584" y="234.070023" style="fill: #0000ff; stroke: #0000ff"/>
     <use xlink:href="#mea951f31fb" x="318.38264" y="234.433327" style="fill: #0000ff; stroke: #0000ff"/>
     <use xlink:href="#mea951f31fb" x="323.133696" y="234.167556" style="fill: #0000ff; stroke: #0000ff"/>
     <use xlink:href="#mea951f31fb" x="327.884752" y="234.059423" style="fill: #0000ff; stroke: #0000ff"/>
     <use xlink:href="#mea951f31fb" x="332.635808" y="234.615079" style="fill: #0000ff; stroke: #0000ff"/>
     <use xlink:href="#mea951f31fb" x="337.386864" y="234.736951" style="fill: #0000ff; stroke: #0000ff"/>
     <use xlink:href="#mea951f31fb" x="342.13792" y="234.543245" style="fill: #0000ff; stroke: #0000ff"/>
     <use xlink:href="#mea951f31fb" x="346.888976" y="234.486729" style="fill: #0000ff; stroke: #0000ff"/>
     <use xlink:href="#mea951f31fb" x="351.640032" y="235.029022" style="fill: #0000ff; stroke: #0000ff"/>
     <use xlink:href="#mea951f31fb" x="356.391088" y="235.068115" style="fill: #0000ff; stroke: #0000ff"/>
     <use xlink:href="#mea951f31fb" x="361.142144" y="234.576369" style="fill: #0000ff; stroke: #0000ff"/>
     <use xlink:href="#mea951f31fb" x="365.8932" y="235.227628" style="fill: #0000ff; stroke: #0000ff"/>
     <use xlink:href="#mea951f31fb" x="370.644256" y="235.362633" style="fill: #0000ff; stroke: #0000ff"/>
     <use xlink:href="#mea951f31fb" x="375.395312" y="235.406166" style="fill: #0000ff; stroke: #0000ff"/>
     <use xlink:href="#mea951f31fb" x="380.146368" y="235.52272" style="fill: #0000ff; stroke: #0000ff"/>
     <use xlink:href="#mea951f31fb" x="384.897424" y="235.528465" style="fill: #0000ff; stroke: #0000ff"/>
     <use xlink:href="#mea951f31fb" x="389.64848" y="235.522312" style="fill: #0000ff; stroke: #0000ff"/>
     <use xlink:href="#mea951f31fb" x="394.399536" y="235.285283" style="fill: #0000ff; stroke: #0000ff"/>
     <use xlink:href="#mea951f31fb" x="399.150592" y="235.481102" style="fill: #0000ff; stroke: #0000ff"/>
     <use xlink:href="#mea951f31fb" x="403.901648" y="235.306198" style="fill: #0000ff; stroke: #0000ff"/>
     <use xlink:href="#mea951f31fb" x="408.652704" y="235.70233" style="fill: #0000ff; stroke: #0000ff"/>
     <use xlink:href="#mea951f31fb" x="413.40376" y="235.489128" style="fill: #0000ff; stroke: #0000ff"/>
     <use xlink:href="#mea951f31fb" x="418.154816" y="235.443452" style="fill: #0000ff; stroke: #0000ff"/>
     <use xlink:href="#mea951f31fb" x="422.905872" y="235.618546" style="fill: #0000ff; stroke: #0000ff"/>
     <use xlink:href="#mea951f31fb" x="427.656928" y="235.672765" style="fill: #0000ff; stroke: #0000ff"/>
     <use xlink:href="#mea951f31fb" x="432.407984" y="235.605361" style="fill: #0000ff; stroke: #0000ff"/>
     <use xlink:href="#mea951f31fb" x="437.15904" y="235.634449" style="fill: #0000ff; stroke: #0000ff"/>
     <use xlink:href="#mea951f31fb" x="441.910096" y="235.808597" style="fill: #0000ff; stroke: #0000ff"/>
     <use xlink:href="#mea951f31fb" x="446.661152" y="235.577218" style="fill: #0000ff; stroke: #0000ff"/>
     <use xlink:href="#mea951f31fb" x="451.412208" y="235.744773" style="fill: #0000ff; stroke: #0000ff"/>
     <use xlink:href="#mea951f31fb" x="456.163264" y="235.851117" style="fill: #0000ff; stroke: #0000ff"/>
     <use xlink:href="#mea951f31fb" x="460.91432" y="235.746498" style="fill: #0000ff; stroke: #0000ff"/>
     <use xlink:href="#mea951f31fb" x="465.665376" y="235.770867" style="fill: #0000ff; stroke: #0000ff"/>
     <use xlink:href="#mea951f31fb" x="470.416433" y="235.818712" style="fill: #0000ff; stroke: #0000ff"/>
     <use xlink:href="#mea951f31fb" x="475.167489" y="235.857097" style="fill: #0000ff; stroke: #0000ff"/>
     <use xlink:href="#mea951f31fb" x="479.918545" y="235.947685" style="fill: #0000ff; stroke: #0000ff"/>
     <use xlink:href="#mea951f31fb" x="484.669601" y="235.850394" style="fill: #0000ff; stroke: #0000ff"/>
     <use xlink:href="#mea951f31fb" x="489.420657" y="235.889244" style="fill: #0000ff; stroke: #0000ff"/>
     <use xlink:href="#mea951f31fb" x="494.171713" y="235.833933" style="fill: #0000ff; stroke: #0000ff"/>
     <use xlink:href="#mea951f31fb" x="498.922769" y="235.959951" style="fill: #0000ff; stroke: #0000ff"/>
     <use xlink:href="#mea951f31fb" x="503.673825" y="235.985895" style="fill: #0000ff; stroke: #0000ff"/>
     <use xlink:href="#mea951f31fb" x="508.424881" y="235.942838" style="fill: #0000ff; stroke: #0000ff"/>
     <use xlink:href="#mea951f31fb" x="513.175937" y="235.87033" style="fill: #0000ff; stroke: #0000ff"/>
     <use xlink:href="#mea951f31fb" x="517.926993" y="235.99117" style="fill: #0000ff; stroke: #0000ff"/>
     <use xlink:href="#mea951f31fb" x="522.678049" y="235.962321" style="fill: #0000ff; stroke: #0000ff"/>
     <use xlink:href="#mea951f31fb" x="527.429105" y="235.945748" style="fill: #0000ff; stroke: #0000ff"/>
     <use xlink:href="#mea951f31fb" x="532.180161" y="235.998941" style="fill: #0000ff; stroke: #0000ff"/>
     <use xlink:href="#mea951f31fb" x="536.931217" y="235.959344" style="fill: #0000ff; stroke: #0000ff"/>
     <use xlink:href="#mea951f31fb" x="541.682273" y="236.012727" style="fill: #0000ff; stroke: #0000ff"/>
    </g>
   </g>
   <g id="patch_3">
    <path d="M 47.81 246.04 
L 47.81 25.44 
" style="fill: none; stroke: #000000; stroke-width: 0.8; stroke-linejoin: miter; stroke-linecap: square"/>
   </g>
   <g id="patch_4">
    <path d="M 565.2 246.04 
L 565.2 25.44 
" style="fill: none; stroke: #000000; stroke-width: 0.8; stroke-linejoin: miter; stroke-linecap: square"/>
   </g>
   <g id="patch_5">
    <path d="M 47.81 246.04 
L 565.2 246.04 
" style="fill: none; stroke: #000000; stroke-width: 0.8; stroke-linejoin: miter; stroke-linecap: square"/>
   </g>
   <g id="patch_6">
    <path d="M 47.81 25.44 
L 565.2 25.44 
" style="fill: none; stroke: #000000; stroke-width: 0.8; stroke-linejoin: miter; stroke-linecap: square"/>
   </g>
   <g id="text_15">
    <!-- Training Loss Curve4 -->
    <g transform="translate(244.340312 19.44) scale(0.12 -0.12)">
     <defs>
      <path id="DejaVuSans-54" d="M -19 4666 
L 3928 4666 
L 3928 4134 
L 2272 4134 
L 2272 0 
L 1638 0 
L 1638 4134 
L -19 4134 
L -19 4666 
z
" transform="scale(0.015625)"/>
      <path id="DejaVuSans-72" d="M 2631 2963 
Q 2534 3019 2420 3045 
Q 2306 3072 2169 3072 
Q 1681 3072 1420 2755 
Q 1159 2438 1159 1844 
L 1159 0 
L 581 0 
L 581 3500 
L 1159 3500 
L 1159 2956 
Q 1341 3275 1631 3429 
Q 1922 3584 2338 3584 
Q 2397 3584 2469 3576 
Q 2541 3569 2628 3553 
L 2631 2963 
z
" transform="scale(0.015625)"/>
      <path id="DejaVuSans-61" d="M 2194 1759 
Q 1497 1759 1228 1600 
Q 959 1441 959 1056 
Q 959 750 1161 570 
Q 1363 391 1709 391 
Q 2188 391 2477 730 
Q 2766 1069 2766 1631 
L 2766 1759 
L 2194 1759 
z
M 3341 1997 
L 3341 0 
L 2766 0 
L 2766 531 
Q 2569 213 2275 61 
Q 1981 -91 1556 -91 
Q 1019 -91 701 211 
Q 384 513 384 1019 
Q 384 1609 779 1909 
Q 1175 2209 1959 2209 
L 2766 2209 
L 2766 2266 
Q 2766 2663 2505 2880 
Q 2244 3097 1772 3097 
Q 1472 3097 1187 3025 
Q 903 2953 641 2809 
L 641 3341 
Q 956 3463 1253 3523 
Q 1550 3584 1831 3584 
Q 2591 3584 2966 3190 
Q 3341 2797 3341 1997 
z
" transform="scale(0.015625)"/>
      <path id="DejaVuSans-69" d="M 603 3500 
L 1178 3500 
L 1178 0 
L 603 0 
L 603 3500 
z
M 603 4863 
L 1178 4863 
L 1178 4134 
L 603 4134 
L 603 4863 
z
" transform="scale(0.015625)"/>
      <path id="DejaVuSans-6e" d="M 3513 2113 
L 3513 0 
L 2938 0 
L 2938 2094 
Q 2938 2591 2744 2837 
Q 2550 3084 2163 3084 
Q 1697 3084 1428 2787 
Q 1159 2491 1159 1978 
L 1159 0 
L 581 0 
L 581 3500 
L 1159 3500 
L 1159 2956 
Q 1366 3272 1645 3428 
Q 1925 3584 2291 3584 
Q 2894 3584 3203 3211 
Q 3513 2838 3513 2113 
z
" transform="scale(0.015625)"/>
      <path id="DejaVuSans-67" d="M 2906 1791 
Q 2906 2416 2648 2759 
Q 2391 3103 1925 3103 
Q 1463 3103 1205 2759 
Q 947 2416 947 1791 
Q 947 1169 1205 825 
Q 1463 481 1925 481 
Q 2391 481 2648 825 
Q 2906 1169 2906 1791 
z
M 3481 434 
Q 3481 -459 3084 -895 
Q 2688 -1331 1869 -1331 
Q 1566 -1331 1297 -1286 
Q 1028 -1241 775 -1147 
L 775 -588 
Q 1028 -725 1275 -790 
Q 1522 -856 1778 -856 
Q 2344 -856 2625 -561 
Q 2906 -266 2906 331 
L 2906 616 
Q 2728 306 2450 153 
Q 2172 0 1784 0 
Q 1141 0 747 490 
Q 353 981 353 1791 
Q 353 2603 747 3093 
Q 1141 3584 1784 3584 
Q 2172 3584 2450 3431 
Q 2728 3278 2906 2969 
L 2906 3500 
L 3481 3500 
L 3481 434 
z
" transform="scale(0.015625)"/>
      <path id="DejaVuSans-20" transform="scale(0.015625)"/>
      <path id="DejaVuSans-43" d="M 4122 4306 
L 4122 3641 
Q 3803 3938 3442 4084 
Q 3081 4231 2675 4231 
Q 1875 4231 1450 3742 
Q 1025 3253 1025 2328 
Q 1025 1406 1450 917 
Q 1875 428 2675 428 
Q 3081 428 3442 575 
Q 3803 722 4122 1019 
L 4122 359 
Q 3791 134 3420 21 
Q 3050 -91 2638 -91 
Q 1578 -91 968 557 
Q 359 1206 359 2328 
Q 359 3453 968 4101 
Q 1578 4750 2638 4750 
Q 3056 4750 3426 4639 
Q 3797 4528 4122 4306 
z
" transform="scale(0.015625)"/>
      <path id="DejaVuSans-75" d="M 544 1381 
L 544 3500 
L 1119 3500 
L 1119 1403 
Q 1119 906 1312 657 
Q 1506 409 1894 409 
Q 2359 409 2629 706 
Q 2900 1003 2900 1516 
L 2900 3500 
L 3475 3500 
L 3475 0 
L 2900 0 
L 2900 538 
Q 2691 219 2414 64 
Q 2138 -91 1772 -91 
Q 1169 -91 856 284 
Q 544 659 544 1381 
z
M 1991 3584 
L 1991 3584 
z
" transform="scale(0.015625)"/>
      <path id="DejaVuSans-76" d="M 191 3500 
L 800 3500 
L 1894 563 
L 2988 3500 
L 3597 3500 
L 2284 0 
L 1503 0 
L 191 3500 
z
" transform="scale(0.015625)"/>
      <path id="DejaVuSans-65" d="M 3597 1894 
L 3597 1613 
L 953 1613 
Q 991 1019 1311 708 
Q 1631 397 2203 397 
Q 2534 397 2845 478 
Q 3156 559 3463 722 
L 3463 178 
Q 3153 47 2828 -22 
Q 2503 -91 2169 -91 
Q 1331 -91 842 396 
Q 353 884 353 1716 
Q 353 2575 817 3079 
Q 1281 3584 2069 3584 
Q 2775 3584 3186 3129 
Q 3597 2675 3597 1894 
z
M 3022 2063 
Q 3016 2534 2758 2815 
Q 2500 3097 2075 3097 
Q 1594 3097 1305 2825 
Q 1016 2553 972 2059 
L 3022 2063 
z
" transform="scale(0.015625)"/>
     </defs>
     <use xlink:href="#DejaVuSans-54"/>
     <use xlink:href="#DejaVuSans-72" transform="translate(46.333984 0)"/>
     <use xlink:href="#DejaVuSans-61" transform="translate(87.447266 0)"/>
     <use xlink:href="#DejaVuSans-69" transform="translate(148.726562 0)"/>
     <use xlink:href="#DejaVuSans-6e" transform="translate(176.509766 0)"/>
     <use xlink:href="#DejaVuSans-69" transform="translate(239.888672 0)"/>
     <use xlink:href="#DejaVuSans-6e" transform="translate(267.671875 0)"/>
     <use xlink:href="#DejaVuSans-67" transform="translate(331.050781 0)"/>
     <use xlink:href="#DejaVuSans-20" transform="translate(394.527344 0)"/>
     <use xlink:href="#DejaVuSans-4c" transform="translate(426.314453 0)"/>
     <use xlink:href="#DejaVuSans-6f" transform="translate(480.277344 0)"/>
     <use xlink:href="#DejaVuSans-73" transform="translate(541.458984 0)"/>
     <use xlink:href="#DejaVuSans-73" transform="translate(593.558594 0)"/>
     <use xlink:href="#DejaVuSans-20" transform="translate(645.658203 0)"/>
     <use xlink:href="#DejaVuSans-43" transform="translate(677.445312 0)"/>
     <use xlink:href="#DejaVuSans-75" transform="translate(747.269531 0)"/>
     <use xlink:href="#DejaVuSans-72" transform="translate(810.648438 0)"/>
     <use xlink:href="#DejaVuSans-76" transform="translate(851.761719 0)"/>
     <use xlink:href="#DejaVuSans-65" transform="translate(910.941406 0)"/>
     <use xlink:href="#DejaVuSans-34" transform="translate(972.464844 0)"/>
    </g>
   </g>
   <g id="legend_1">
    <g id="patch_7">
     <path d="M 502.323437 48.118125 
L 558.2 48.118125 
Q 560.2 48.118125 560.2 46.118125 
L 560.2 32.44 
Q 560.2 30.44 558.2 30.44 
L 502.323437 30.44 
Q 500.323437 30.44 500.323437 32.44 
L 500.323437 46.118125 
Q 500.323437 48.118125 502.323437 48.118125 
z
" style="fill: #ffffff; opacity: 0.8; stroke: #cccccc; stroke-linejoin: miter"/>
    </g>
    <g id="line2d_26">
     <path d="M 504.323437 38.538437 
L 514.323437 38.538437 
L 524.323437 38.538437 
" style="fill: none; stroke: #0000ff; stroke-width: 1.5; stroke-linecap: square"/>
     <g>
      <use xlink:href="#mea951f31fb" x="514.323437" y="38.538437" style="fill: #0000ff; stroke: #0000ff"/>
     </g>
    </g>
    <g id="text_16">
     <!-- Data -->
     <g transform="translate(532.323437 42.038437) scale(0.1 -0.1)">
      <defs>
       <path id="DejaVuSans-44" d="M 1259 4147 
L 1259 519 
L 2022 519 
Q 2988 519 3436 956 
Q 3884 1394 3884 2338 
Q 3884 3275 3436 3711 
Q 2988 4147 2022 4147 
L 1259 4147 
z
M 628 4666 
L 1925 4666 
Q 3281 4666 3915 4102 
Q 4550 3538 4550 2338 
Q 4550 1131 3912 565 
Q 3275 0 1925 0 
L 628 0 
L 628 4666 
z
" transform="scale(0.015625)"/>
       <path id="DejaVuSans-74" d="M 1172 4494 
L 1172 3500 
L 2356 3500 
L 2356 3053 
L 1172 3053 
L 1172 1153 
Q 1172 725 1289 603 
Q 1406 481 1766 481 
L 2356 481 
L 2356 0 
L 1766 0 
Q 1100 0 847 248 
Q 594 497 594 1153 
L 594 3053 
L 172 3053 
L 172 3500 
L 594 3500 
L 594 4494 
L 1172 4494 
z
" transform="scale(0.015625)"/>
      </defs>
      <use xlink:href="#DejaVuSans-44"/>
      <use xlink:href="#DejaVuSans-61" transform="translate(77.001953 0)"/>
      <use xlink:href="#DejaVuSans-74" transform="translate(138.28125 0)"/>
      <use xlink:href="#DejaVuSans-61" transform="translate(177.490234 0)"/>
     </g>
    </g>
   </g>
  </g>
 </g>
 <defs>
  <clipPath id="p786163866f">
   <rect x="47.81" y="25.44" width="517.39" height="220.6"/>
  </clipPath>
 </defs>
</svg>
